<svg width="560" height="560" viewBox="0 0 560 560" fill="none" xmlns="http://www.w3.org/2000/svg">
<path d="M280 0C435.55 0 560 126.08 560 280C560 435.55 435.55 560 280 560C126.08 560 0 435.55 0 280C0 126.08 126.08 0 280 0ZM280 27.836C140.82 27.836 27.84 140.816 27.84 279.996C27.84 419.176 140.82 532.156 280 532.156C419.18 532.156 532.16 419.176 532.16 279.996C532.16 140.816 419.18 27.836 280 27.836V27.836Z" fill="white"/>
<path d="M214.5 280H345.5C396.262 280 437.195 320.938 437.195 371.695V410.992C437.195 438.828 412.633 463.39 384.797 463.39H176.847C147.374 463.39 124.449 440.464 124.449 410.992V371.695C124.449 320.933 165.387 280 214.508 280H214.5ZM345.5 307.836H214.5C180.113 307.836 150.641 335.672 150.641 371.695V410.992C150.641 424.09 162.102 437.191 176.84 437.191H384.79C397.888 437.191 409.352 425.73 409.352 410.992V371.695C409.352 335.672 381.516 307.836 345.493 307.836H345.5Z" fill="white"/>
<path d="M280 96.609C327.484 96.609 366.785 135.906 366.785 183.394C366.785 230.878 327.488 270.179 280 270.179C232.516 270.179 194.855 230.882 194.855 183.394C194.855 135.91 232.515 96.609 280 96.609V96.609ZM280 124.445C247.25 124.445 221.051 150.644 221.051 183.394C221.051 216.144 247.25 242.343 280 242.343C312.75 242.343 338.949 216.144 338.949 183.394C338.949 150.644 312.75 124.445 280 124.445V124.445Z" fill="white"/>
</svg>
