<svg width="186" height="109" viewBox="0 0 186 109" fill="none" xmlns="http://www.w3.org/2000/svg">
<g filter="url(#filter0_d_105_33)">
<path d="M178.583 76.567C179.097 83.9289 173.38 90.3263 165.812 90.8559L23.6296 100.807C16.0625 101.337 9.51116 95.7982 8.99682 88.4362L4.58131 25.235C4.06698 17.873 9.7844 11.4757 17.3516 10.9461L159.534 0.994774C167.102 0.465153 173.653 6.00383 174.167 13.3658L178.583 76.567Z" fill="#112530"/>
<path d="M15.4658 31.0746C13.3193 30.5719 11.7077 28.7304 11.7077 26.7216V11.9864C11.7077 5.95926 16.8962 1.10418 23.3386 1.10418H63.2432V16.5081H72.906V1.10418L170.077 1.10291C176.518 1.10291 181.708 5.95799 181.708 11.9858V80.2993C181.708 83.3123 180.454 85.9918 178.307 88.0019C176.16 90.0108 173.297 91.1835 170.075 91.1835H73.0865V75.7796H63.4237V91.1835H23.5191C17.0768 91.1835 11.8882 86.3284 11.8882 80.3006V65.5661C11.8882 63.3892 13.4985 61.5471 15.6464 61.2131C23.1626 59.5383 28.3525 53.5105 28.3525 46.1445C28.1713 38.9439 22.9828 32.7481 15.4672 31.0746H15.4658ZM103.865 42.7943L115.676 50.9989C116.213 51.3343 116.571 52.1716 116.213 52.6743L111.739 65.7341C111.202 67.2409 112.992 68.413 114.244 67.4089L126.234 59.3722C126.771 59.0368 127.665 59.0368 128.202 59.3722L140.192 67.4089C141.445 68.2462 143.234 67.0735 142.697 65.7341L138.223 52.6743C138.044 52.0049 138.223 51.3343 138.76 50.9989L150.571 42.7943C151.824 41.9569 151.286 39.948 149.676 39.948L135.002 39.7813C134.286 39.7813 133.569 39.2793 133.391 38.7766L128.739 25.7169C128.202 24.2101 126.055 24.2101 125.519 25.7169L120.866 38.7766C120.688 39.446 119.971 39.7813 119.256 39.7813L104.582 39.948C103.328 39.948 102.613 41.7902 103.865 42.7943ZM63.4237 67.0722H73.0859V50.4962H63.4237V67.0722ZM63.4237 41.7902H73.0859V25.2135H63.4237V41.7902Z" fill="#C53546"/>
<path d="M114.7 15.9332C114.7 15.9332 116.509 15.4475 117.089 16.1954C117.669 16.9421 116.926 18.7909 116.78 18.1115C117.36 19.1974 117.165 20.0771 116.73 20.2124C116.296 20.348 115.855 20.3541 115.855 20.3541C115.855 20.3541 115.862 21.231 115.137 21.0951C114.412 20.9598 114.012 20.6803 114.158 20.1368C114.304 19.5938 113.18 20.8919 112.383 19.5338C111.586 18.175 112.89 17.7671 112.89 17.7671C112.89 17.7671 112.364 17.6535 112.19 17.2084C112.036 16.8104 112.075 16.0499 112.962 16.0146C114.343 15.958 114.351 16.485 114.351 16.485L114.7 15.9332Z" fill="#E5ADB4"/>
<path d="M115.261 22.1792C115.261 22.1792 116.181 20.6259 117.161 20.7715C118.141 20.917 119.017 22.7286 118.396 22.3424C119.634 22.7283 120.164 23.4848 119.956 23.8712C119.749 24.258 119.44 24.5567 119.44 24.5567C119.44 24.5567 120.11 25.1767 119.492 25.5634C118.872 25.9507 118.377 26.0181 118.067 25.5351C117.758 25.0513 117.944 26.7248 116.344 26.2902C114.747 25.8548 115.364 24.6934 115.364 24.6934C115.364 24.6934 114.903 24.9638 114.442 24.7627C114.03 24.5817 113.48 24.0145 114.084 23.3978C115.025 22.4345 115.429 22.8048 115.429 22.8048L115.261 22.1792Z" fill="#E5ADB4"/>
<path d="M106.431 16.5356C106.431 16.5356 107.395 14.9069 108.422 15.0593C109.451 15.2123 110.37 17.1113 109.718 16.7069C111.017 17.1127 111.572 17.9056 111.355 18.3103C111.137 18.716 110.813 19.0288 110.813 19.0288C110.813 19.0288 111.516 19.6788 110.867 20.0845C110.218 20.4902 109.697 20.5617 109.373 20.0542C109.049 19.5467 109.244 21.3027 107.568 20.8453C105.893 20.3898 106.541 19.1726 106.541 19.1726C106.541 19.1726 106.056 19.4562 105.572 19.2452C105.14 19.0554 104.565 18.4613 105.197 17.8141C106.185 16.8043 106.608 17.1927 106.608 17.1927L106.431 16.5356Z" fill="#E5ADB4"/>
<path d="M112.527 25.4612C112.494 25.8848 112.129 26.5636 111.302 26.258C110.015 25.7799 110.238 25.297 110.238 25.297L109.678 25.6669C109.678 25.6669 107.814 25.4188 107.609 24.515C107.405 23.61 108.888 22.203 108.726 22.8805C108.669 21.6653 109.23 20.9361 109.686 20.9796C110.143 21.0222 110.547 21.1845 110.547 21.1845C110.547 21.1845 110.924 20.3816 111.526 20.7826C112.129 21.1834 112.373 21.591 112.003 22.0319C111.634 22.4729 113.275 21.7129 113.363 23.2626C113.404 24.0154 113.335 24.6724 113.124 24.9353C112.915 25.198 112.527 25.4612 112.527 25.4612" fill="#E5ADB4"/>
<path d="M102.709 21.5702C102.709 21.5702 103.386 20.1789 104.375 20.3257C105.363 20.4724 106.248 22.3004 105.621 21.9107C106.871 22.3018 107.405 23.0646 107.195 23.4541C106.985 23.8441 106.674 24.1453 106.674 24.1453C106.674 24.1453 107.35 24.77 106.727 25.1614C106.103 25.5515 105.6 25.6197 105.289 25.1317C104.977 24.644 105.164 26.3332 103.552 25.8931C101.939 25.4541 102.562 24.2831 102.562 24.2831C102.562 24.2831 102.097 24.5557 101.632 24.3533C101.215 24.1706 100.66 23.5985 101.271 22.9755C102.22 22.004 102.628 22.3772 102.628 22.3772L102.709 21.5702Z" fill="#E5ADB4"/>
<path d="M62.0922 23.0193V22.1365H56.6144L48.0405 40.1468L49.0229 42.3833H52.8931L62.0922 23.0193ZM45.2718 33.8785H45.3909L47.3855 38.6459L49.9458 33.2311L45.2718 22.1365H39.6154V42.3833H45.2718V33.8785ZM62.0922 25.9328L56.6144 37.4688V42.3833H62.0922V25.9328Z" fill="#E5ADB4"/>
<path d="M106.297 41.5299C106.039 40.7451 105.811 39.98 105.612 39.2345L104.66 35.9973C104.342 34.9379 104.094 34.1433 103.916 33.6136C103.757 33.025 103.628 32.5836 103.529 32.2893L100.492 22.1365H106.565L112.132 42.3833H106.565L106.297 41.5299ZM110.971 33.4076L113.978 22.1365H119.932L116.896 32.2893L115.794 35.9973C115.437 37.1352 115.109 38.2143 114.812 39.2345C114.613 39.98 114.385 40.7451 114.127 41.5299L113.859 42.3833H113.442L110.971 33.4076ZM122.019 22.1365H127.973V42.3833H122.019V22.1365ZM131.846 22.1365H137.8V42.3833H131.846V22.1365ZM139.05 22.1365H146.612V26.6391H139.05V22.1365ZM139.05 29.9056H145.213V34.4082H139.05V29.9056ZM139.05 37.8808H146.612V42.3833H139.05V37.8808Z" fill="#E5ADB4"/>
<path d="M71.9151 64.7931C71.2602 64.7146 70.109 64.6067 68.4617 64.4694C67.5488 64.4302 66.8144 64.4105 66.2587 64.4105C65.5442 64.4105 64.8694 64.4302 64.2343 64.4694V59.908H64.9785C66.606 59.908 68.293 60.0159 70.0396 60.2317C70.5953 60.3102 71.2205 60.4181 71.9151 60.5554V64.7931ZM67.003 74.4162C67.003 74.0042 66.9732 73.71 66.9136 73.5334C66.8541 73.3372 66.7549 73.2097 66.6159 73.1508C66.477 73.0723 66.2388 73.0135 65.9014 72.9742L62.2396 72.5328C60.0763 72.2974 58.6175 71.6009 57.8633 70.4434C57.5259 69.9529 57.2977 69.3545 57.1786 68.6482C57.0595 67.942 57 67.0787 57 66.0585C57 63.8808 57.5656 62.3113 58.6969 61.35C59.6099 60.5652 61.0389 60.1042 62.9839 59.9668V65.882C62.9839 66.137 62.9938 66.3528 63.0137 66.5294C63.0335 66.706 63.0732 66.8433 63.1328 66.9414C63.1923 67.0591 63.2915 67.1474 63.4305 67.2062C63.5694 67.2455 63.7778 67.2749 64.0557 67.2945L68.164 67.7948C69.0174 67.9125 69.7121 68.0597 70.248 68.2362C70.7838 68.4128 71.2403 68.6875 71.6174 69.0602C72.5105 69.9823 72.9571 71.6205 72.9571 73.9748C72.9571 76.4664 72.4014 78.2125 71.2899 79.2131C70.7938 79.6643 70.1884 79.9979 69.4739 80.2137C68.7793 80.4099 67.9556 80.5374 67.003 80.5962V74.4162ZM65.4251 80.6257C63.4404 80.6257 61.5946 80.5374 59.8878 80.3608C58.8756 80.2627 58.1114 80.1646 57.5954 80.0665V75.77C58.7664 75.8681 60.1061 75.9661 61.6145 76.0642C62.5671 76.1035 63.2419 76.1231 63.6389 76.1231C64.7106 76.1231 65.4152 76.0937 65.7526 76.0348V80.6257H65.4251ZM74.3656 60.1434H91.1265V64.852H74.3656V60.1434ZM79.7541 66.0291H85.7082V80.3902H79.7541V66.0291ZM96.6381 60.1434H97.1441L99.496 68.2068L96.0724 80.3902H90.1183L96.6381 60.1434ZM103.336 76.8H98.3647L99.6151 72.268H101.997L98.4838 60.1434H103.932L110.452 80.3902H104.378L103.336 76.8ZM112.432 60.1434H118.387V80.3902H112.432V60.1434ZM120.828 73.504H119.637V69.0014H120.649C121.264 69.0014 121.731 68.9818 122.048 68.9425C122.366 68.8837 122.614 68.7856 122.793 68.6482C122.951 68.5109 123.061 68.3049 123.12 68.0303C123.18 67.7556 123.209 67.3534 123.209 66.8237C123.209 66.294 123.18 65.8918 123.12 65.6171C123.061 65.3228 122.951 65.107 122.793 64.9697C122.634 64.8323 122.396 64.7441 122.078 64.7048C121.78 64.6656 121.304 64.646 120.649 64.646H119.637V60.1434H122.703C124.112 60.1434 125.254 60.2807 126.127 60.5554C127 60.8301 127.675 61.2519 128.151 61.8208C128.588 62.3505 128.876 63.0078 129.015 63.7925C129.173 64.5773 129.253 65.5877 129.253 66.8237C129.253 68.4128 129.104 69.639 128.806 70.5022C128.39 71.6009 127.655 72.3759 126.603 72.8271L129.699 80.3902H123.448L120.828 73.504Z" fill="#E5ADB4"/>
<path d="M159.379 28.2949H176.23V26.2944H159.379V28.2949ZM159.379 25.8948H176.23V24.6941H159.379V25.8948ZM159.379 24.2945H176.23V23.8943H159.379V24.2945ZM159.379 23.294H176.23V21.2935H159.379V23.294ZM159.379 20.8939H176.23V20.4937H159.379V20.8939ZM159.379 20.0935H176.23V19.6939H159.379V20.0935ZM159.379 19.2936H176.23V18.8934H159.379V19.2936ZM159.379 18.0936H176.23V16.4934H159.379V18.0936ZM159.379 15.6929H176.23V14.4929H159.379V15.6929ZM159.379 13.6924H176.23V13.2928H159.379V13.6924ZM159.379 12.8926H176.23V12.0928H159.379V12.8926ZM159.379 11.4925H176.23V9.89221H159.379V11.4925Z" fill="#E5ADB4"/>
<path d="M159.379 47.2005H176.23V45.2H159.379V47.2005ZM159.379 44.7997H176.23V43.5997H159.379V44.7997ZM159.379 43.1995H176.23V42.7999H159.379V43.1995ZM159.379 42.1996H176.23V40.1991H159.379V42.1996ZM159.379 39.7988H176.23V39.3993H159.379V39.7988ZM159.379 38.999H176.23V38.5988H159.379V38.999ZM159.379 38.1992H176.23V37.799H159.379V38.1992ZM159.379 36.9986H176.23V35.3983H159.379V36.9986ZM159.379 34.5985H176.23V33.3985H159.379V34.5985ZM159.379 32.598H176.23V32.1978H159.379V32.598ZM159.379 31.7982H176.23V30.9977H159.379V31.7982ZM159.379 30.3981H176.23V28.7978H159.379V30.3981Z" fill="#E5ADB4"/>
<path d="M159.379 65.4959H176.23V63.4954H159.379V65.4959ZM159.379 63.0952H176.23V61.8952H159.379V63.0952ZM159.379 61.495H176.23V61.0954H159.379V61.495ZM159.379 60.495H176.23V58.4945H159.379V60.495ZM159.379 58.095H176.23V57.6947H159.379V58.095ZM159.379 57.2945H176.23V56.8949H159.379V57.2945ZM159.379 56.4947H176.23V56.0945H159.379V56.4947ZM159.379 55.2947H176.23V53.6938H159.379V55.2947ZM159.379 52.894H176.23V51.6939H159.379V52.894ZM159.379 50.8935H176.23V50.4939H159.379V50.8935ZM159.379 50.0937H176.23V49.2939H159.379V50.0937ZM159.379 48.6935H176.23V47.0933H159.379V48.6935Z" fill="#E5ADB4"/>
<path d="M159.379 83.182H176.23V81.1815H159.379V83.182ZM159.379 80.7812H176.23V79.5812H159.379V80.7812ZM159.379 79.181H176.23V78.7808H159.379V79.181ZM159.379 78.1811H176.23V76.1806H159.379V78.1811ZM159.379 75.7803H176.23V75.3808H159.379V75.7803ZM159.379 74.9805H176.23V74.5803H159.379V74.9805ZM159.379 74.1807H176.23V73.7805H159.379V74.1807ZM159.379 72.9801H176.23V71.3798H159.379V72.9801ZM159.379 70.58H176.23V69.3793H159.379V70.58ZM159.379 68.5795H176.23V68.1793H159.379V68.5795ZM159.379 67.7797H176.23V66.9792H159.379V67.7797ZM159.379 66.3796H176.23V64.7793H159.379V66.3796Z" fill="#E5ADB4"/>
<path d="M110.64 18.5652C110.642 18.5534 110.646 18.541 110.649 18.5285C110.54 18.5056 110.429 18.5134 110.323 18.5554C110.335 18.5554 110.346 18.5567 110.358 18.5567C110.455 18.558 110.55 18.56 110.64 18.5652Z" fill="white"/>
<path d="M104.178 42.9923C104.178 42.5515 103.852 42.1924 103.452 42.1924C103.052 42.1924 102.727 42.5515 102.727 42.9923C102.727 43.4337 103.052 43.7927 103.452 43.7927C103.852 43.7927 104.178 43.4337 104.178 42.9923ZM102.888 42.9923C102.888 42.6502 103.141 42.371 103.452 42.371C103.763 42.371 104.015 42.6502 104.015 42.9923C104.015 43.3349 103.762 43.6142 103.452 43.6142C103.141 43.6142 102.888 43.3349 102.888 42.9923Z" fill="white"/>
<path d="M96.4313 23.5196L97.0723 23.1482L97.7134 23.5196L97.5916 22.7322L98.1103 22.1744L97.3932 22.06L97.0723 21.3432L96.7514 22.06L96.0343 22.1744L96.5536 22.7322L96.4313 23.5196ZM96.3823 22.2993L96.8593 22.2228L97.0723 21.746L97.2853 22.2228L97.7623 22.2993L97.4177 22.6701L97.499 23.1939L97.0723 22.9467L96.6463 23.1939L96.727 22.6701L96.3823 22.2993Z" fill="white"/>
<path d="M103.03 15.3561L103.472 15.0991L103.915 15.3561L103.83 14.8126L104.189 14.4275L103.693 14.3483L103.472 13.8533L103.251 14.3483L102.756 14.4275L103.114 14.8126L103.03 15.3561ZM103.104 14.5517L103.358 14.5112L103.472 14.2568L103.587 14.5112L103.841 14.5517L103.657 14.7499L103.7 15.0298L103.473 14.8977L103.245 15.0298L103.288 14.7499L103.104 14.5517Z" fill="white"/>
<path d="M121.78 35.7057L122.138 36.0902L122.054 36.6337L122.496 36.3773L122.939 36.6337L122.854 36.0902L123.213 35.7057L122.717 35.6259L122.496 35.1315L122.275 35.6259L121.78 35.7057ZM122.496 35.5344L122.61 35.7888L122.866 35.8293L122.681 36.0281L122.725 36.3074L122.496 36.1753L122.269 36.3074L122.312 36.0281L122.128 35.8293L122.383 35.7888L122.496 35.5344Z" fill="white"/>
<path d="M122.497 16.4639L122.205 17.4546H121.261L122.025 18.0667L121.732 19.0575L122.497 18.4447L123.261 19.0575L122.969 18.0667L123.733 17.4546H122.789L122.497 16.4639ZM122.779 17.9987L122.954 18.5906L122.497 18.2243L122.041 18.5906L122.215 17.9987L121.758 17.6332H122.323L122.497 17.0413L122.672 17.6332H123.236L122.779 17.9987Z" fill="white"/>
<path d="M119.922 13.3C119.523 13.3 119.197 13.6584 119.197 14.0999C119.197 14.5406 119.523 14.8997 119.922 14.8997C120.322 14.8997 120.648 14.5406 120.648 14.0999C120.648 13.6591 120.322 13.3 119.922 13.3ZM119.922 14.7211C119.612 14.7211 119.359 14.4425 119.359 14.0999C119.359 13.7572 119.612 13.4786 119.922 13.4786C120.233 13.4786 120.486 13.7578 120.486 14.0999C120.486 14.4425 120.233 14.7211 119.922 14.7211Z" fill="white"/>
<path d="M122.416 28.8978C122.416 29.249 122.675 29.5348 122.994 29.5348C123.312 29.5348 123.571 29.249 123.571 28.8978C123.571 28.546 123.312 28.2602 122.994 28.2602C122.675 28.2602 122.416 28.546 122.416 28.8978ZM122.994 28.4387C123.223 28.4387 123.41 28.6447 123.41 28.8978C123.41 29.1509 123.223 29.3562 122.994 29.3562C122.764 29.3562 122.578 29.1502 122.578 28.8978C122.577 28.6447 122.764 28.4387 122.994 28.4387Z" fill="white"/>
<path d="M99.1575 18.3833C99.5789 18.3833 99.9216 18.0053 99.9216 17.541C99.9216 17.0767 99.5789 16.6987 99.1575 16.6987C98.7367 16.6987 98.394 17.076 98.394 17.541C98.394 18.0053 98.7367 18.3833 99.1575 18.3833ZM99.1575 16.8772C99.4896 16.8772 99.7595 17.1748 99.7595 17.541C99.7595 17.9072 99.4896 18.2048 99.1575 18.2048C98.826 18.2048 98.5555 17.9065 98.5555 17.541C98.5555 17.1748 98.826 16.8772 99.1575 16.8772Z" fill="white"/>
<path d="M101.783 42.9055C101.677 42.8819 101.574 42.8557 101.47 42.8275L101.431 43.0005C101.536 43.0306 101.643 43.0568 101.751 43.0804L101.783 42.9055Z" fill="white"/>
<path d="M97.4017 39.6961C97.5116 39.8987 97.632 40.0973 97.759 40.2862L97.8886 40.1803C97.7649 39.9954 97.6478 39.8013 97.5407 39.6047L97.4017 39.6961Z" fill="white"/>
<path d="M96.4689 35.9853C96.4689 36.1022 96.4715 36.2192 96.4762 36.3348L96.6376 36.3263C96.6329 36.2133 96.6303 36.0996 96.6303 35.9853C96.6303 35.869 96.6329 35.752 96.6382 35.6337L96.4768 35.6252C96.4715 35.7455 96.4689 35.8663 96.4689 35.9853Z" fill="white"/>
<path d="M99.7358 42.0332C99.5571 41.9149 99.3818 41.7856 99.2144 41.6477L99.1172 41.7908C99.2892 41.9319 99.4691 42.0652 99.6524 42.1861L99.7358 42.0332Z" fill="white"/>
<path d="M98.7295 41.2065C98.5747 41.0516 98.4258 40.887 98.2862 40.7164L98.1665 40.836C98.3087 41.0105 98.4622 41.1797 98.6203 41.3384L98.7295 41.2065Z" fill="white"/>
<path d="M96.8221 37.6926C96.7711 37.4698 96.7295 37.2411 96.699 37.0143L96.5389 37.0405C96.5707 37.2731 96.613 37.507 96.6646 37.7357L96.8221 37.6926Z" fill="white"/>
<path d="M100.87 42.6258C100.673 42.5487 100.478 42.4591 100.289 42.3605L100.22 42.5219C100.413 42.6231 100.614 42.714 100.815 42.7937L100.87 42.6258Z" fill="white"/>
<path d="M96.8519 38.4158C96.9234 38.636 97.0067 38.8568 97.098 39.0704L97.2442 38.994C97.1549 38.7856 97.0742 38.5706 97.0041 38.3557L96.8519 38.4158Z" fill="white"/>
<path d="M96.756 34.5933L96.5972 34.558C96.5761 34.6769 96.5569 34.7952 96.541 34.9141L96.7011 34.9402C96.7163 34.8246 96.7349 34.7083 96.756 34.5933Z" fill="white"/>
<path d="M123.354 38.54L123.192 38.5361C123.19 38.6543 123.184 38.7706 123.174 38.8863L123.335 38.9026C123.345 38.7824 123.352 38.6622 123.354 38.54Z" fill="white"/>
<path d="M122.207 41.7687C122.367 41.5707 122.513 41.3584 122.641 41.1362L122.505 41.0402C122.381 41.2538 122.24 41.459 122.086 41.6498L122.207 41.7687Z" fill="white"/>
<path d="M121.585 42.1807C121.407 42.3421 121.215 42.4891 121.016 42.6172L121.097 42.7714C121.304 42.6387 121.503 42.4865 121.688 42.3186L121.585 42.1807Z" fill="white"/>
<path d="M122.831 40.3653L122.98 40.4358C123.075 40.1941 123.154 39.9419 123.213 39.6857L123.056 39.642C122.999 39.8883 122.924 40.1313 122.831 40.3653Z" fill="white"/>
<path d="M120.391 42.9504C120.175 43.0426 119.951 43.1157 119.726 43.1687L119.759 43.3431C119.993 43.2882 120.225 43.2118 120.449 43.1164L120.391 42.9504Z" fill="white"/>
<path d="M119.044 43.4464L119.036 43.2682C118.931 43.2741 118.825 43.2767 118.718 43.2734L118.715 43.4523C118.746 43.453 118.777 43.4536 118.808 43.4536C118.887 43.4536 118.966 43.451 119.044 43.4464Z" fill="white"/>
<path d="M122.912 22.9722H123.075V23.6851H122.912V22.9722Z" fill="white"/>
<path d="M122.912 25.8261H123.075V26.5389H122.912V25.8261Z" fill="white"/>
<path d="M122.912 24.3992H123.075V25.1121H122.912V24.3992Z" fill="white"/>
<path d="M122.912 21.5446H123.075V22.2581H122.912V21.5446Z" fill="white"/>
<path d="M52.3302 71.7218C51.6163 71.5995 50.9038 71.4654 50.188 71.3556C46.7339 70.8258 43.2799 70.3014 39.8258 69.7762C37.1312 69.3668 34.4366 68.9601 31.7427 68.5514C31.6786 68.5422 31.6164 68.5219 31.5244 68.5003C32.3064 64.0756 33.0857 59.6652 33.8617 55.2712C33.9418 55.2555 33.9683 55.2424 33.9921 55.247C34.5895 55.3451 35.3099 55.2908 35.7485 55.5897C36.1719 55.8794 36.3069 56.534 36.5623 57.0317C36.8461 57.5856 37.1292 58.1415 37.4018 58.7019C37.509 58.9236 37.6393 59.0505 37.9317 59.0786C38.5047 59.1329 39.0723 59.2441 39.7266 59.3441C39.1226 58.1676 38.5516 57.0533 37.9403 55.8611C38.4504 55.9311 38.891 56.0318 39.3329 56.0429C40.0474 56.0612 40.4219 56.3803 40.6766 56.9885C41.0226 57.8171 41.4791 58.6052 41.8793 59.4141C41.9772 59.6123 42.0976 59.7221 42.355 59.7496C42.9398 59.813 43.5207 59.9203 44.1862 60.0223C43.5809 58.8432 43.0093 57.7288 42.3987 56.5393C42.8915 56.6066 43.3176 56.6995 43.7483 56.7171C44.4542 56.7466 44.8776 57.0147 45.1356 57.6615C45.467 58.494 45.9374 59.2781 46.3363 60.087C46.4422 60.3022 46.5778 60.4042 46.8471 60.4317C47.4206 60.4905 47.9883 60.5991 48.6452 60.7005C48.0399 59.5181 47.4689 58.405 46.8543 57.2043C47.6515 57.3273 48.3746 57.4293 49.0924 57.5614C49.1864 57.5784 49.2664 57.7373 49.3207 57.8446C49.8195 58.819 50.3163 59.7941 50.8026 60.773C50.9025 60.9732 51.0222 61.0798 51.2769 61.1072C51.8638 61.1707 52.4453 61.276 53.1049 61.376C52.4989 60.1936 51.9266 59.0786 51.3173 57.8897C51.9828 57.9852 52.5756 58.0702 53.1684 58.1552C53.1809 58.1343 53.1922 58.1134 53.2048 58.0931C52.6987 57.8067 52.1932 57.5202 51.6236 57.1971C52.0536 57.0153 52.4281 56.8571 52.8019 56.6988C53.5647 56.3764 54.3321 56.0632 55.0863 55.7251C55.335 55.6132 55.5262 55.6159 55.7531 55.7604C56.0072 55.9219 56.2877 56.0481 56.5569 56.1894V56.2646C56.0092 57.0971 55.4587 57.9283 54.9162 58.7641C54.864 58.8458 54.8521 58.9531 54.8349 59.0498C54.3506 61.7677 53.869 64.485 53.3854 67.2029C53.1174 68.7096 52.8455 70.217 52.575 71.7231C52.4936 71.7218 52.4122 71.7218 52.3302 71.7218ZM52.7747 62.5715C46.6466 61.6396 40.5774 60.7175 34.4883 59.7921C34.4175 60.2067 34.3566 60.5605 34.2904 60.947C40.3941 61.8743 46.4667 62.7984 52.5677 63.7257C52.6365 63.3392 52.7006 62.9848 52.7747 62.5715ZM51.4132 70.2281C51.4774 69.9083 51.5224 69.6369 51.5879 69.3695C51.6421 69.1465 51.5581 69.0549 51.318 69.0196C49.7831 68.794 48.2496 68.5598 46.7161 68.3264C43.3156 67.8104 39.9145 67.2938 36.514 66.7778C35.4647 66.6189 34.4148 66.46 33.3404 66.2971C33.2723 66.6954 33.2101 67.0603 33.1433 67.4507C39.2489 68.3793 45.3129 69.3008 51.4132 70.2281Z" fill="#E5ADB4"/>
<path d="M36.4796 48.7563C37.073 47.8414 37.6558 46.9429 38.2592 46.0129C39.4818 46.6937 40.6805 47.3614 41.9448 48.0657C41.7265 48.1619 41.567 48.2345 41.405 48.3031C40.4232 48.7204 39.4374 49.1324 38.4596 49.5568C38.2433 49.651 38.0733 49.6634 37.8622 49.5346C37.4236 49.2677 36.9645 49.0271 36.4796 48.7563Z" fill="#E5ADB4"/>
<path d="M47.7474 55.0358C48.9945 54.508 50.1615 54.011 51.3325 53.5232C51.4311 53.482 51.5879 53.4565 51.6706 53.4996C52.2898 53.8286 52.8971 54.1771 53.5693 54.5532C52.4936 55.0103 51.4648 55.4125 50.4731 55.8833C49.9538 56.1292 49.5456 56.1305 49.0798 55.7977C48.6875 55.5178 48.2357 55.3105 47.7474 55.0358Z" fill="#E5ADB4"/>
<path d="M45.8282 50.2323C44.5527 50.7712 43.3665 51.2767 42.1744 51.7698C42.0844 51.8071 41.9316 51.7868 41.841 51.7384C41.2449 51.4199 40.6587 51.0864 40.0024 50.7208C40.4913 50.5122 40.9234 50.3271 41.3554 50.1427C42.0917 49.8295 42.826 49.513 43.567 49.2095C43.6748 49.1657 43.8429 49.1395 43.9335 49.1866C44.5441 49.5077 45.1409 49.8497 45.8282 50.2323Z" fill="#E5ADB4"/>
<path d="M49.6998 52.3924C48.7491 52.7952 47.8163 53.1098 46.9754 53.5695C46.173 54.0083 45.5233 53.956 44.8359 53.425C44.5713 53.2203 44.2445 53.0862 43.8885 52.8881C44.0844 52.7959 44.2213 52.7272 44.3629 52.667C45.3579 52.2452 46.3569 51.8319 47.3459 51.4003C47.5781 51.2989 47.7501 51.2878 47.9764 51.4245C48.5189 51.7521 49.0825 52.0484 49.6998 52.3924Z" fill="#E5ADB4"/>
<path d="M81.8572 46.5952H81.8496C76.7395 46.5952 73.1699 45.9103 70.2995 45.3595L70.2288 45.3459C66.1508 44.5522 64.1081 44.1555 61.4606 46.4065C61.1654 46.6603 60.6813 46.6603 60.3938 46.4C60.0987 46.1462 60.0987 45.7364 60.3938 45.4826C63.6305 42.7317 66.3838 43.2636 70.5571 44.0699L70.562 44.0708C71.485 44.253 72.4989 44.4417 73.5957 44.6238C68.8746 42.1972 65.6972 37.7668 65.6972 32.7055C65.6972 25.0482 72.9451 18.8221 81.85 18.8221C90.7552 18.8221 98.0028 25.0482 98.0028 32.7055C98.0028 40.3634 90.7552 46.5958 81.8581 46.5958L81.8572 46.5952ZM81.8496 42.7763C84.1345 42.7763 85.9956 41.1758 85.9956 39.211C85.9956 37.2462 84.1344 35.6522 81.8496 35.6522C79.5647 35.6522 77.7111 37.2461 77.7111 39.211C77.7111 41.1759 79.5647 42.7763 81.8496 42.7763ZM74.2841 29.146C71.9992 29.146 70.1456 30.74 70.1456 32.7048C70.1456 34.6697 71.9992 36.2702 74.2841 36.2702C76.569 36.2702 78.4301 34.6697 78.4301 32.7048C78.4298 30.74 76.5689 29.146 74.2841 29.146ZM81.8496 22.6402C79.5647 22.6402 77.7111 24.2342 77.7111 26.199C77.7111 28.1639 79.5647 29.7644 81.8496 29.7644C84.1345 29.7644 85.9956 28.1638 85.9956 26.199C85.9956 24.2342 84.1344 22.6402 81.8496 22.6402ZM89.4151 29.146C87.1301 29.146 85.2765 30.74 85.2765 32.7048C85.2765 34.6697 87.1301 36.2702 89.4151 36.2702C91.7 36.2702 93.5611 34.6697 93.5611 32.7048C93.5611 30.74 91.6999 29.146 89.4151 29.146Z" fill="#E5ADB4"/>
<path d="M81.8572 46.5952H81.8496C76.7395 46.5952 73.1699 45.9103 70.2995 45.3595L70.2288 45.3459C66.1508 44.5522 64.1081 44.1555 61.4606 46.4065C61.1654 46.6603 60.6813 46.6603 60.3938 46.4C60.0987 46.1462 60.0987 45.7364 60.3938 45.4826C63.6305 42.7317 66.3838 43.2636 70.5571 44.0699L70.562 44.0708C71.485 44.253 72.4989 44.4417 73.5957 44.6238C68.8746 42.1972 65.6972 37.7668 65.6972 32.7055C65.6972 25.0482 72.9451 18.8221 81.85 18.8221C90.7552 18.8221 98.0028 25.0482 98.0028 32.7055C98.0028 40.3634 90.7552 46.5958 81.8581 46.5958L81.8572 46.5952ZM81.8496 42.7763C84.1345 42.7763 85.9956 41.1758 85.9956 39.211C85.9956 37.2462 84.1344 35.6522 81.8496 35.6522C79.5647 35.6522 77.7111 37.2461 77.7111 39.211C77.7111 41.1759 79.5647 42.7763 81.8496 42.7763ZM74.2841 29.146C71.9992 29.146 70.1456 30.74 70.1456 32.7048C70.1456 34.6697 71.9992 36.2702 74.2841 36.2702C76.569 36.2702 78.4301 34.6697 78.4301 32.7048C78.4298 30.74 76.5689 29.146 74.2841 29.146ZM81.8496 22.6402C79.5647 22.6402 77.7111 24.2342 77.7111 26.199C77.7111 28.1639 79.5647 29.7644 81.8496 29.7644C84.1345 29.7644 85.9956 28.1638 85.9956 26.199C85.9956 24.2342 84.1344 22.6402 81.8496 22.6402ZM89.4151 29.146C87.1301 29.146 85.2765 30.74 85.2765 32.7048C85.2765 34.6697 87.1301 36.2702 89.4151 36.2702C91.7 36.2702 93.5611 34.6697 93.5611 32.7048C93.5611 30.74 91.6999 29.146 89.4151 29.146Z" stroke="#646464"/>
</g>
<defs>
<filter id="filter0_d_105_33" x="0.549133" y="0.959717" width="185.159" height="107.883" filterUnits="userSpaceOnUse" color-interpolation-filters="sRGB">
<feFlood flood-opacity="0" result="BackgroundImageFix"/>
<feColorMatrix in="SourceAlpha" type="matrix" values="0 0 0 0 0 0 0 0 0 0 0 0 0 0 0 0 0 0 127 0" result="hardAlpha"/>
<feOffset dy="4"/>
<feGaussianBlur stdDeviation="2"/>
<feComposite in2="hardAlpha" operator="out"/>
<feColorMatrix type="matrix" values="0 0 0 0 0 0 0 0 0 0 0 0 0 0 0 0 0 0 0.25 0"/>
<feBlend mode="normal" in2="BackgroundImageFix" result="effect1_dropShadow_105_33"/>
<feBlend mode="normal" in="SourceGraphic" in2="effect1_dropShadow_105_33" result="shape"/>
</filter>
</defs>
</svg>
